PathFileType	4	(X/Y/Z)	Patient5_TMGait_0pt45_1_right_03.trc.trc
DataRate	CameraRate	NumFrames	NumMarkers	Units	OrigDataRate	OrigDataStartFrame	OrigNumFrames
60.085836909871	60.085836909871	6	32	mm	60.085836909871	71	       141
Frame#	Time	R.ASIS			L.ASIS			Chest			R.Shoulder			Neck			L.Shoulder			L.Elbow			L.Wrist			R.Elbow			R.Wrist			L.Thigh.Superior			L.Thigh.Lateral			L.Thigh.Inferior			L.Patella			L.Shank.Superior			L.Shank.Lateral			L.Shank.Inferior			L.Heel			L.Midfoot.Lateral			L.Midfoot.Superior			L.Toe			R.Thigh.Superior			R.Thigh.Lateral			R.Thigh.Inferior			R.Patella			R.Shank.Superior			R.Shank.Lateral			R.Shank.Inferior			R.Heel			R.Midfoot.Lateral			R.Midfoot.Superior			R.Toe			
		X1	Y1	Z1	X2	Y2	Z2	X3	Y3	Z3	X4	Y4	Z4	X5	Y5	Z5	X6	Y6	Z6	X7	Y7	Z7	X8	Y8	Z8	X9	Y9	Z9	X10	Y10	Z10	X11	Y11	Z11	X12	Y12	Z12	X13	Y13	Z13	X14	Y14	Z14	X15	Y15	Z15	X16	Y16	Z16	X17	Y17	Z17	X18	Y18	Z18	X19	Y19	Z19	X20	Y20	Z20	X21	Y21	Z21	X22	Y22	Z22	X23	Y23	Z23	X24	Y24	Z24	X25	Y25	Z25	X26	Y26	Z26	X27	Y27	Z27	X28	Y28	Z28	X29	Y29	Z29	X30	Y30	Z30	X31	Y31	Z31	X32	Y32	Z32	

71	5.635000000000	952.428111268613	968.714895090671	591.183040603952	976.145804995779	953.549179282057	353.362054287610	1036.784102014011	1429.119045840170	474.458304877954	928.172023164521	1493.661708985585	635.923334062853	906.107751663137	1547.987183700226	448.200984516060	981.984504293322	1490.737459636449	272.735637458701	897.121577179592	1170.401668949641	152.383554925601	1006.749341485016	904.828662689340	152.414286081149	842.102311488854	1175.343737499836	775.909483092172	1051.576997274011	977.097865075224	742.283928815605	1036.551820117205	758.427758382986	343.274785116069	989.342191246641	674.019379570718	296.091051268937	1068.850660243936	636.357467078690	369.134172591337	1098.576615327229	521.781835556448	375.364905708263	1066.628538567555	410.701927235716	388.246386399045	1017.426241660988	335.335160946153	302.741666377862	1053.063101405415	283.871139092888	391.074361534132	953.722357625804	49.389052208967	387.675782397755	1040.114060857454	27.242972885595	322.933549099108	1137.938925059454	89.689249916340	365.394903073535	1245.258342049989	48.287319314371	365.036786574381	929.242985096693	729.655157449416	605.161650483813	822.382815742161	668.274887557908	649.115682185878	896.533484914595	600.975574427297	582.725468704507	873.856888233169	503.018211835490	609.003990148088	809.986754975732	413.778903434485	565.462670369250	717.780104707588	366.401218974770	639.101512792743	760.488069768913	283.582584645561	562.343512307762	590.278110436601	76.631060050517	518.826552172045	660.182637355697	37.060562225168	595.541278824939	772.712760369293	89.886367232237	582.533597001856	869.275363784444	42.178752928225	586.565501244312	
72	5.651642857143	952.556433437421	970.962346380707	587.555063550486	979.172105724890	955.054669383727	350.258631413188	1038.370865464479	1431.175475409693	471.766432737005	927.732238749599	1496.175115341803	631.684745724193	908.114216280026	1550.144821810086	443.593836548469	986.422758416679	1492.369903049891	269.273384741795	903.631947339915	1171.927049165460	148.023394881464	1014.055725285388	906.772992012846	148.447340116722	837.409656909057	1177.898702022288	769.377412374304	1046.995970010193	979.129340723657	738.307022047223	1038.338441334195	758.460357485657	339.004100795879	989.486432722142	674.179490345129	292.881874876558	1068.852779196402	636.229717720552	365.821507555286	1097.299942549696	521.285716790945	373.169956389589	1063.978585213924	410.408463780422	386.467174033337	1013.912878251183	335.333063202118	301.167291266677	1048.517731941359	283.789688680849	389.837985877467	946.452328462962	49.311900784892	387.290093243700	1032.835171747564	27.241828150608	322.492114450709	1130.624597159566	89.874884127938	364.878518932023	1238.020143359618	48.330898843791	364.553484022940	931.561766330621	732.437924662270	604.374894375506	824.902502495396	670.488758521633	647.732875847167	900.806500444485	603.080746026499	583.268661544397	878.515003374542	504.405394601355	610.488244390572	812.494359726112	414.552923208955	566.468303143846	718.548817076077	369.452962669577	639.395945545875	759.949809570507	285.506610395913	563.301810806752	585.083359492524	83.405138797039	519.372645181768	653.719971673700	40.874503226788	595.697442481116	767.714488069787	90.490354966548	583.567962626479	862.251045293152	41.951986135431	586.616700844854	
73	5.668285714286	952.375692563058	973.249507584160	583.904760829440	981.838684308584	956.372519003341	347.184182014769	1039.753204088288	1433.089772870300	469.203095940744	926.985311500337	1498.488230982828	627.402184821741	910.044487947878	1552.192470467834	439.000476469542	990.975162579204	1494.041192639011	265.969878624411	910.157816948749	1173.624270467802	143.490267149947	1021.665368038836	909.016074320447	144.563514666602	833.201762035032	1180.318955807618	763.211342133016	1042.709927455415	981.017726238112	734.020582439346	1039.325753426352	758.083852899837	334.718390749296	988.662793133288	674.029778138432	289.619434798176	1067.867837680225	635.744771524063	362.456431401087	1095.046632144617	520.610432784633	370.868918417905	1060.555503629531	410.027297364790	384.670306720867	1009.680882344189	335.102230596716	299.720447948868	1043.542469929111	283.643011698786	388.650397256439	939.222795357710	49.241007256650	386.999414322112	1025.602987167686	27.234416060425	322.180668102544	1123.349512897561	90.017521691172	364.530619434244	1230.828229434545	48.373082827347	364.259590539769	934.408812688387	735.444705569263	603.976077343887	828.244263016474	672.616333853797	646.767051340259	906.160000233428	605.282243393422	584.396195036387	884.445707100171	505.765683487624	612.605304321996	816.100894146843	415.374663882730	568.044816727298	720.451876520874	372.599809549629	640.300491694987	760.259094350438	287.622496566964	564.678313644809	580.421214351545	91.152104442968	520.208371010072	647.583760685515	45.369131708669	596.024401812616	763.120275496160	91.323774126760	584.776255909534	855.417188883813	41.751329247894	586.718588289150	
74	5.684928571429	951.973570878127	975.548086465039	580.421304662336	984.130814978310	957.505085547293	344.196472737937	1040.869322157807	1434.812353918576	466.732143272869	925.858457603857	1500.547677986569	623.063538336584	911.826008070040	1554.068165027023	434.402313889412	995.556425729670	1495.678807171076	262.812247734685	916.746425842135	1175.403803794949	138.761157923182	1029.568022787280	911.448300949901	140.821514624363	829.447151755188	1182.510596532650	757.393732385864	1038.750919897846	982.730798295928	729.501215943680	1039.698705611378	757.591513014823	330.956768631940	987.374903849105	673.854814653097	286.477299406049	1066.167732887955	635.086430143664	359.372482843304	1092.008653670984	519.811939885538	368.604399218729	1056.489286912989	409.582704059076	382.877599515234	1004.958718096500	334.723515837257	298.283907921841	1038.193659888728	283.436579727016	387.472220757831	931.969396632075	49.200088705472	386.757524073064	1018.349304349232	27.202313383270	321.950671400231	1116.082443372452	90.063334006437	364.307149881067	1223.631838150738	48.304635783363	364.129683956269	937.766818336893	738.601535969155	603.964596863585	832.450423087548	674.593013899750	646.265854822588	912.574389820324	607.554105380361	586.088273313227	891.608968476687	507.088264559939	615.296981940117	820.847065052229	416.278755832966	570.179712804079	723.552078320541	375.858144932320	641.843897645673	761.445951781946	289.964883496150	566.463372577797	576.397754892250	99.932325530441	521.381753263531	641.851243635532	50.644521964758	596.557819565997	758.953901216279	92.509873608800	586.166297618415	848.831054812126	41.575085027312	586.917081685978	
75	5.701571428571	951.498270113074	977.873618372482	577.314602669664	986.035264932383	958.478608863765	341.318726455790	1041.672641616944	1436.322368996419	464.312941204312	924.346308330476	1502.344627323024	618.678979408757	913.394914609333	1555.748814217851	429.807882634243	1000.045037138345	1497.225139351808	259.787769070098	923.450199858054	1177.176728537488	133.850428004241	1037.758067297243	913.963413424835	137.263361398324	826.043085841486	1184.419002178584	751.841257459579	1035.098867016005	984.264487341959	724.864041531984	1039.605921059753	757.196364956019	328.010821911366	985.966972172677	673.842232513588	283.575661441992	1063.997493913095	634.401559098722	356.743610552856	1088.394405267984	518.950651517789	366.451118478323	1051.944917048276	409.105703244254	381.098029049512	999.919119915174	334.270649006855	296.807477854363	1032.553836306269	283.189547948865	386.277146170819	924.659265740314	49.193939795244	386.529761630262	1011.037773689980	27.143076937391	321.756523791152	1108.796628550912	90.010356350603	364.150326610888	1216.396173736987	48.111837167993	364.102560346999	941.548557715525	741.874793245744	604.277513037754	837.481978192631	676.424218429794	646.237263876269	919.921825848121	609.926553194940	588.259393996039	899.869411963467	508.433813110235	618.447528980915	826.680186047863	417.346573351689	572.811846505170	727.830918286607	379.294333072623	643.998303153330	763.498516650154	292.609748076417	568.608425933797	573.136755149799	109.828312288747	522.900650438938	636.594539059243	56.826611220688	597.304848143179	755.235516837954	94.187728617877	587.735029722457	842.531125809330	41.410388594295	587.257694886003	
76	5.718214285714	951.135043838192	980.281615050874	574.779556114296	987.546040197545	959.332474549613	338.544505056815	1042.132172724739	1437.632114697003	461.912051357089	922.488347006105	1503.906767669963	614.280016709351	914.697495426661	1557.245440079388	425.251254951354	1004.290860923553	1498.648237106868	256.885482575865	930.302231469055	1178.865613858188	128.816423345361	1046.227110357570	916.474486103277	133.913271547840	822.841756491099	1186.027382175269	746.434435599311	1031.693438027267	985.637506988586	720.240329306542	1039.144719650893	756.987842805852	325.888249744966	984.574391908722	674.050932649791	280.975581526659	1061.534660864987	633.772521837275	354.586729468085	1084.389516422387	518.077158759649	364.445831578296	1047.082681545583	408.623740448042	379.356657380190	994.674375829126	333.799352346598	295.315468953071	1026.709707801260	282.924091531347	385.074404828590	917.284038706499	49.214381473206	386.300762253925	1003.659108293035	27.066808788888	321.569208340472	1101.474461727822	89.886157701111	364.016303093738	1209.104346876148	47.835492712551	364.115403674405	945.621009814364	745.268724661690	604.789342438854	843.225660421256	678.181126142695	646.649768107542	927.988977309865	612.470699348774	590.772901919266	909.012997807351	509.918199117473	621.906245718831	833.454872595984	418.687432343707	575.837576823549	733.184476287676	383.006765098306	646.682096459935	766.361422214588	295.658847409683	571.032102336384	570.761882147661	120.914276095561	524.724395911798	631.870544371580	64.038687900195	598.234694486272	751.974501033364	96.489401647133	589.462068011428	836.519826033498	41.235156623159	587.769375411690	
